<svg xmlns="http://www.w3.org/2000/svg" width="132.516" height="49.343" viewBox="0 0 132.516 49.343">
  <g id="Group_2274" data-name="Group 2274" transform="translate(-2.215 -3.665)">
    <g id="Group_7" data-name="Group 7" transform="translate(47.754 11.913)">
      <path id="Path_1" data-name="Path 1" d="M267.305-220.4h-6.862l-10.629,27.1-10.688-27.1h-6.862l-10.988,27.892h4.194a2.865,2.865,0,0,0,2.671-1.827l7.12-18.334a11.412,11.412,0,0,0,.624-2.192,14.605,14.605,0,0,0,.584,2.2l2.7,6.936h-4.828l-1.915,5.006h8.731l2.42,6.329a2.95,2.95,0,0,0,2.75,1.881h7.324a2.863,2.863,0,0,0,2.67-1.827l7.121-18.335a11.372,11.372,0,0,0,.624-2.191,14.584,14.584,0,0,0,.584,2.2l2.7,6.936h-4.862l-1.92,5.006h8.762l2.428,6.329a2.95,2.95,0,0,0,2.75,1.881h3.79Z" transform="translate(-221.276 220.398)" fill="#000"/>
      <path id="Path_2" data-name="Path 2" d="M447.369-205.719v5h3.818l5.443,7.061a2.951,2.951,0,0,0,2.337,1.151h5.443l-7.389-9.281c4.065-1.3,5.157-5.3,5.157-9.526a9.533,9.533,0,0,0-.937-4.383,6.866,6.866,0,0,0-2.59-2.83,12.252,12.252,0,0,0-3.507-1.434,17.61,17.61,0,0,0-4.044-.437H439.626V-192.5h3.07a2.921,2.921,0,0,0,2.907-3v-19.637h5.778a4.852,4.852,0,0,1,3.386.957,4.629,4.629,0,0,1,1.277,3.716c0,1.9-.337,3.02-1.153,3.787a4.853,4.853,0,0,1-3.386.955Z" transform="translate(-381.142 220.396)" fill="#000"/>
      <path id="Path_3" data-name="Path 3" d="M532.414-218.813v.7h.555a1.269,1.269,0,0,0,.172-.009,1.117,1.117,0,0,0,.16-.034.237.237,0,0,0,.142-.106.377.377,0,0,0,.049-.2.376.376,0,0,0-.049-.2.229.229,0,0,0-.142-.1.986.986,0,0,0-.16-.036,1.376,1.376,0,0,0-.172-.007Zm0,1.806h-.324v-2.118H533a1.3,1.3,0,0,1,.367.048.637.637,0,0,1,.305.2.594.594,0,0,1,.137.41.58.58,0,0,1-.464.615l.593.841h-.371l-.545-.792h-.609Zm-1.259-1.836a1.784,1.784,0,0,0-.165.779,1.786,1.786,0,0,0,.165.78,1.552,1.552,0,0,0,.435.562,2,2,0,0,0,.595.333,2,2,0,0,0,.672.115,2.013,2.013,0,0,0,.672-.115,2.028,2.028,0,0,0,.6-.333,1.567,1.567,0,0,0,.433-.562,1.807,1.807,0,0,0,.165-.78,1.805,1.805,0,0,0-.165-.779,1.567,1.567,0,0,0-.433-.562,2.023,2.023,0,0,0-.6-.333,2.013,2.013,0,0,0-.672-.115,2,2,0,0,0-.672.115,2,2,0,0,0-.595.333,1.553,1.553,0,0,0-.435.562m3.553-.073a1.983,1.983,0,0,1,.182.852,1.983,1.983,0,0,1-.182.852,1.647,1.647,0,0,1-.478.615,2.329,2.329,0,0,1-.652.359,2.178,2.178,0,0,1-.723.126,2.177,2.177,0,0,1-.723-.126,2.326,2.326,0,0,1-.652-.359,1.642,1.642,0,0,1-.478-.615,1.979,1.979,0,0,1-.182-.852,1.98,1.98,0,0,1,.182-.852,1.643,1.643,0,0,1,.478-.615,2.318,2.318,0,0,1,.652-.359,2.133,2.133,0,0,1,.723-.126,2.134,2.134,0,0,1,.723.126,2.321,2.321,0,0,1,.652.359,1.648,1.648,0,0,1,.478.615" transform="translate(-447.912 220.118)" fill="#000"/>
    </g>
    <g id="Group_8" data-name="Group 8" transform="translate(26.478 0) rotate(48)">
      <path id="Path_4" data-name="Path 4" d="M.265,12.54a.088.088,0,0,1-.08-.142l5.477-7.15a2.125,2.125,0,0,1,1.625-.835l9-.3a.088.088,0,0,1,.068.148.2.2,0,0,0-.032-.345c-1.4-.69-2.69-1.209-2.69-1.209h0C11.224,1.763,7.569.258,4.326,0a.677.677,0,0,0-.31.048.582.582,0,0,0-.2.2C2.09,3.09,1.217,6.911.585,9.42l0,0S.259,10.768,0,12.312a.206.206,0,0,0,.262.228" transform="translate(0.24 5.21)" fill="#42a3e2"/>
      <path id="Path_5" data-name="Path 5" d="M16.122,0l-9,.294a2.14,2.14,0,0,0-1.627.836L.019,8.281A.088.088,0,0,0,.1,8.423l.045-.016,8-4.121L16.153.174a.225.225,0,0,0,.039-.028A.087.087,0,0,0,16.122,0" transform="translate(0.407 9.328)" fill="#0083d0"/>
      <path id="Path_6" data-name="Path 6" d="M8.779,18.251,5.325,9.935a2.038,2.038,0,0,1-.16-.924,2.015,2.015,0,0,1,.25-.9L9.658.166A.088.088,0,0,1,9.822.18.207.207,0,0,0,9.5.035c-1.3.87-2.391,1.724-2.391,1.724v0c-2.026,1.613-5.157,4.024-7,6.705A.678.678,0,0,0,0,8.759a.6.6,0,0,0,.074.28c1.6,2.907,4.468,5.574,6.326,7.375v0s1,.955,2.213,1.948a.2.2,0,0,0,.328-.113.087.087,0,0,1-.162,0" transform="translate(0 14.237)" fill="#42a3e2"/>
      <path id="Path_7" data-name="Path 7" d="M4.5.047.253,7.99A2.142,2.142,0,0,0,.164,9.817l3.454,8.318a.088.088,0,0,0,.162,0,.261.261,0,0,0,.009-.046L4.222,9.1,4.664.107a.225.225,0,0,0,0-.046A.088.088,0,0,0,4.5.047" transform="translate(5.161 14.354)" fill="#0083d0"/>
      <path id="Path_8" data-name="Path 8" d="M15.413,9.953,6.484,8.785a2.007,2.007,0,0,1-.88-.322,2.037,2.037,0,0,1-.658-.669L.19.147A.088.088,0,0,1,.282.014.2.2,0,0,0,0,.216C.105,1.777.3,3.15.3,3.15h0c.385,2.561.908,6.48,2.308,9.415a.671.671,0,0,0,.2.245.561.561,0,0,0,.28.076c3.314.073,7.06-1.082,9.549-1.79l0,0s1.33-.391,2.793-.943a.2.2,0,0,0,.068-.34.088.088,0,0,1-.083.14" transform="translate(10.428 22.741)" fill="#42a3e2"/>
      <path id="Path_9" data-name="Path 9" d="M.015.135,4.77,7.783a2.136,2.136,0,0,0,1.538.991l8.93,1.168a.088.088,0,0,0,.083-.14.3.3,0,0,0-.035-.031L7.715,4.9.15.02A.223.223,0,0,0,.107,0,.087.087,0,0,0,.015.135" transform="translate(10.604 22.754)" fill="#0083d0"/>
      <path id="Path_10" data-name="Path 10" d="M16.172.007a.088.088,0,0,1,.08.142L10.777,7.3a2.131,2.131,0,0,1-1.627.835l-9,.3A.088.088,0,0,1,.08,8.282a.2.2,0,0,0,.032.345c1.4.69,2.69,1.209,2.69,1.209h0c2.409.948,6.064,2.453,9.307,2.708a.673.673,0,0,0,.31-.048.594.594,0,0,0,.206-.2c1.72-2.835,2.593-6.656,3.225-9.166h0s.325-1.347.581-2.89a.206.206,0,0,0-.262-.228" transform="translate(18.299 17.871)" fill="#42a3e2"/>
      <path id="Path_11" data-name="Path 11" d="M.092,8.423l9-.294a2.14,2.14,0,0,0,1.627-.836L16.2.142A.088.088,0,0,0,16.115,0c-.014,0-.029.009-.043.015l-8,4.121L.061,8.249a.213.213,0,0,0-.039.028.087.087,0,0,0,.069.147" transform="translate(18.355 17.878)" fill="#0083d0"/>
      <path id="Path_12" data-name="Path 12" d="M9.746,9.372C8.15,6.465,5.28,3.8,3.42,2v0s-1-.955-2.212-1.947A.205.205,0,0,0,.88.159a.087.087,0,0,1,.162,0L4.5,8.477A2.14,2.14,0,0,1,4.406,10.3L.162,18.246A.087.087,0,0,1,0,18.233a.205.205,0,0,0,.316.145c1.3-.87,2.391-1.724,2.391-1.724v0c2.026-1.613,5.158-4.024,7-6.705a.677.677,0,0,0,.114-.293.579.579,0,0,0-.074-.28" transform="translate(25.156 2.98)" fill="#42a3e2"/>
      <path id="Path_13" data-name="Path 13" d="M.167,18.142,4.412,10.2A2.147,2.147,0,0,0,4.5,8.373L1.048.056a.089.089,0,0,0-.163,0C.881.068.877.084.875.1L.442,9.09,0,18.082a.223.223,0,0,0,0,.046.088.088,0,0,0,.162.014" transform="translate(25.151 3.086)" fill="#0083d0"/>
      <path id="Path_14" data-name="Path 14" d="M.147,2.935,9.077,4.1a2,2,0,0,1,.88.322,2.039,2.039,0,0,1,.658.669l4.756,7.648a.088.088,0,0,1-.094.132.205.205,0,0,0,.283-.2c-.1-1.56-.3-2.933-.3-2.933h0c-.385-2.559-.907-6.479-2.308-9.414a.668.668,0,0,0-.2-.245A.566.566,0,0,0,12.477,0c-3.315-.072-7.061,1.082-9.55,1.79l0,0S1.594,2.183.13,2.735a.2.2,0,0,0-.066.34.088.088,0,0,1,.083-.14" transform="translate(8.988 0)" fill="#42a3e2"/>
      <path id="Path_15" data-name="Path 15" d="M15.323,9.807,10.567,2.159a2.015,2.015,0,0,0-.656-.667,2.039,2.039,0,0,0-.881-.324L.1,0a.089.089,0,0,0-.083.14C.029.152.04.163.052.172l7.571,4.87,7.565,4.879a.21.21,0,0,0,.043.018.087.087,0,0,0,.092-.133" transform="translate(9.035 2.933)" fill="#0083d0"/>
    </g>
    <text id="APPLICATION_NAME" data-name="APPLICATION NAME" transform="translate(47.368 51.008)" fill="#000" font-size="9" font-family="Lato-Light, Lato" font-weight="300"><tspan x="0" y="0">APPLICATION NAME</tspan></text>
  </g>
</svg>
